<?xml version="1.0" encoding="UTF-8" standalone="no"?><svg xmlns="http://www.w3.org/2000/svg" xmlns:xlink="http://www.w3.org/1999/xlink" contentScriptType="application/ecmascript" contentStyleType="text/css" height="409px" preserveAspectRatio="none" style="width:276px;height:409px;" version="1.1" viewBox="0 0 276 409" width="276px" zoomAndPan="magnify"><defs><filter height="300%" id="fvn41uv1j6ygu" width="300%" x="-1" y="-1"><feGaussianBlur result="blurOut" stdDeviation="2.0"/><feColorMatrix in="blurOut" result="blurOut2" type="matrix" values="0 0 0 0 0 0 0 0 0 0 0 0 0 0 0 0 0 0 .4 0"/><feOffset dx="4.0" dy="4.0" in="blurOut2" result="blurOut3"/><feBlend in="SourceGraphic" in2="blurOut3" mode="normal"/></filter></defs><g><text fill="#000000" font-family="sans-serif" font-size="18" lengthAdjust="spacingAndGlyphs" textLength="258" x="2.75" y="17.4023">US 9 - Domain Model Excerpt</text><!--MD5=[02e4b9b7573f1156f41e60aa5b4e25a4]
class Company--><rect codeLine="9" fill="#FEFECE" filter="url(#fvn41uv1j6ygu)" height="52.9551" id="Company" style="stroke: #A80036; stroke-width: 1.5;" width="86" x="57.5" y="28.1992"/><ellipse cx="72.5" cy="44.1992" fill="#ADD1B2" rx="11" ry="11" style="stroke: #A80036; stroke-width: 1.0;"/><path d="M74.9731,50.3423 Q74.3921,50.6411 73.7529,50.7905 Q73.1138,50.9399 72.4082,50.9399 Q69.9014,50.9399 68.5815,49.2881 Q67.2617,47.6362 67.2617,44.5151 Q67.2617,41.3857 68.5815,39.7339 Q69.9014,38.082 72.4082,38.082 Q73.1138,38.082 73.7612,38.2314 Q74.4087,38.3809 74.9731,38.6797 L74.9731,41.4023 Q74.3423,40.8213 73.7488,40.5515 Q73.1553,40.2817 72.5244,40.2817 Q71.1797,40.2817 70.4949,41.3484 Q69.8101,42.415 69.8101,44.5151 Q69.8101,46.6069 70.4949,47.6736 Q71.1797,48.7402 72.5244,48.7402 Q73.1553,48.7402 73.7488,48.4705 Q74.3423,48.2007 74.9731,47.6196 Z " fill="#000000"/><text fill="#000000" font-family="sans-serif" font-size="12" lengthAdjust="spacingAndGlyphs" textLength="54" x="86.5" y="48.7344">Company</text><line style="stroke: #A80036; stroke-width: 1.5;" x1="58.5" x2="142.5" y1="60.1992" y2="60.1992"/><text fill="#000000" font-family="sans-serif" font-size="11" lengthAdjust="spacingAndGlyphs" textLength="69" x="63.5" y="74.834">-designation</text><!--MD5=[36afb6bbd95a8ac778c4537c55a683d5]
class ParameterCategory--><rect codeLine="14" fill="#FEFECE" filter="url(#fvn41uv1j6ygu)" height="65.9102" id="ParameterCategory" style="stroke: #A80036; stroke-width: 1.5;" width="143" x="7" y="329.1992"/><ellipse cx="22" cy="345.1992" fill="#ADD1B2" rx="11" ry="11" style="stroke: #A80036; stroke-width: 1.0;"/><path d="M24.4731,351.3423 Q23.8921,351.6411 23.2529,351.7905 Q22.6138,351.9399 21.9082,351.9399 Q19.4014,351.9399 18.0815,350.2881 Q16.7617,348.6362 16.7617,345.5151 Q16.7617,342.3857 18.0815,340.7339 Q19.4014,339.082 21.9082,339.082 Q22.6138,339.082 23.2612,339.2314 Q23.9087,339.3809 24.4731,339.6797 L24.4731,342.4023 Q23.8423,341.8213 23.2488,341.5515 Q22.6553,341.2817 22.0244,341.2817 Q20.6797,341.2817 19.9949,342.3484 Q19.3101,343.415 19.3101,345.5151 Q19.3101,347.6069 19.9949,348.6736 Q20.6797,349.7402 22.0244,349.7402 Q22.6553,349.7402 23.2488,349.4705 Q23.8423,349.2007 24.4731,348.6196 Z " fill="#000000"/><text fill="#000000" font-family="sans-serif" font-size="12" lengthAdjust="spacingAndGlyphs" textLength="111" x="36" y="349.7344">ParameterCategory</text><line style="stroke: #A80036; stroke-width: 1.5;" x1="8" x2="149" y1="361.1992" y2="361.1992"/><text fill="#000000" font-family="sans-serif" font-size="11" lengthAdjust="spacingAndGlyphs" textLength="32" x="13" y="375.834">-code</text><text fill="#000000" font-family="sans-serif" font-size="11" lengthAdjust="spacingAndGlyphs" textLength="35" x="13" y="388.7891">-name</text><!--MD5=[aeb3272166074d8737a70b61b1e71682]
class TestType--><rect codeLine="20" fill="#FEFECE" filter="url(#fvn41uv1j6ygu)" height="78.8652" id="TestType" style="stroke: #A80036; stroke-width: 1.5;" width="110" x="142.5" y="158.1992"/><ellipse cx="168.3" cy="174.1992" fill="#ADD1B2" rx="11" ry="11" style="stroke: #A80036; stroke-width: 1.0;"/><path d="M170.7731,180.3423 Q170.1921,180.6411 169.5529,180.7905 Q168.9138,180.9399 168.2082,180.9399 Q165.7014,180.9399 164.3815,179.2881 Q163.0617,177.6362 163.0617,174.5151 Q163.0617,171.3857 164.3815,169.7339 Q165.7014,168.082 168.2082,168.082 Q168.9138,168.082 169.5612,168.2314 Q170.2087,168.3809 170.7731,168.6797 L170.7731,171.4023 Q170.1423,170.8213 169.5488,170.5515 Q168.9553,170.2817 168.3244,170.2817 Q166.9797,170.2817 166.2949,171.3484 Q165.6101,172.415 165.6101,174.5151 Q165.6101,176.6069 166.2949,177.6736 Q166.9797,178.7402 168.3244,178.7402 Q168.9553,178.7402 169.5488,178.4705 Q170.1423,178.2007 170.7731,177.6196 Z " fill="#000000"/><text fill="#000000" font-family="sans-serif" font-size="12" lengthAdjust="spacingAndGlyphs" textLength="54" x="184.7" y="178.7344">TestType</text><line style="stroke: #A80036; stroke-width: 1.5;" x1="143.5" x2="251.5" y1="190.1992" y2="190.1992"/><text fill="#000000" font-family="sans-serif" font-size="11" lengthAdjust="spacingAndGlyphs" textLength="32" x="148.5" y="204.834">-code</text><text fill="#000000" font-family="sans-serif" font-size="11" lengthAdjust="spacingAndGlyphs" textLength="67" x="148.5" y="217.7891">-description</text><text fill="#000000" font-family="sans-serif" font-size="11" lengthAdjust="spacingAndGlyphs" textLength="98" x="148.5" y="230.7441">-collectionMethod</text><!--MD5=[742a261f27a3dcd734c626287d811acd]
link Company to TestType--><path codeLine="27" d="M118.07,81.2292 C132.81,102.6592 154.09,133.5992 170.92,158.0592 " fill="none" id="Company-TestType" style="stroke: #A80036; stroke-width: 1.0;"/><polygon fill="#000000" points="156.3337,123.974,153.6288,114.8562,148.7861,118.1874,156.3337,123.974" style="stroke: #000000; stroke-width: 1.0;"/><text fill="#000000" font-family="sans-serif" font-size="13" lengthAdjust="spacingAndGlyphs" textLength="58" x="162.5" y="124.7676">conducts</text><text fill="#000000" font-family="sans-serif" font-size="13" lengthAdjust="spacingAndGlyphs" textLength="8" x="113.2081" y="101.7081">1</text><text fill="#000000" font-family="sans-serif" font-size="13" lengthAdjust="spacingAndGlyphs" textLength="6" x="159.8359" y="147.5637">*</text><!--MD5=[93b4f25fb503a8e0e9a46b1d30ff3f44]
link Company to ParameterCategory--><path codeLine="28" d="M89.8,81.2792 C81.87,101.6892 71.73,131.2392 67.5,158.1992 C58.11,217.9992 66.24,288.7792 72.63,328.9892 " fill="none" id="Company-ParameterCategory" style="stroke: #A80036; stroke-width: 1.0;"/><polygon fill="#000000" points="72.1543,202.8425,75.7116,194.0223,69.8478,193.6159,72.1543,202.8425" style="stroke: #000000; stroke-width: 1.0;"/><text fill="#000000" font-family="sans-serif" font-size="13" lengthAdjust="spacingAndGlyphs" textLength="43" x="81.5" y="202.7676">adopts</text><text fill="#000000" font-family="sans-serif" font-size="13" lengthAdjust="spacingAndGlyphs" textLength="8" x="78.4006" y="101.7697">1</text><text fill="#000000" font-family="sans-serif" font-size="13" lengthAdjust="spacingAndGlyphs" textLength="6" x="64.8837" y="318.5822">*</text><!--MD5=[8aaf0efd5e2f3824be7ea3e488dcc283]
link TestType to ParameterCategory--><path codeLine="31" d="M169.3,237.2092 C148.82,265.1792 121.42,302.5892 102.09,328.9792 " fill="none" id="TestType-ParameterCategory" style="stroke: #A80036; stroke-width: 1.0;"/><text fill="#000000" font-family="sans-serif" font-size="13" lengthAdjust="spacingAndGlyphs" textLength="79" x="167.5" y="280.7676">can measure</text><polygon fill="#000000" points="147.5457,295.1989,155.2611,289.6381,150.519,286.1651,147.5457,295.1989" style="stroke: #000000; stroke-width: 1.0;"/><text fill="#000000" font-family="sans-serif" font-size="13" lengthAdjust="spacingAndGlyphs" textLength="110" x="158.5" y="296.0781">parameters under</text><text fill="#000000" font-family="sans-serif" font-size="13" lengthAdjust="spacingAndGlyphs" textLength="6" x="158.1325" y="257.6005">*</text><text fill="#000000" font-family="sans-serif" font-size="13" lengthAdjust="spacingAndGlyphs" textLength="22" x="82.5687" y="318.5702">1..*</text><!--MD5=[a36cbda46ee42eb4cb91eda2e7573560]
@startuml

skinparam classAttributeIconSize 0
hide methods

title
US 9 - Domain Model Excerpt
end title

class Company {
-designation
}


class ParameterCategory {
-code
-name
}


class TestType {
-code
-description
-collectionMethod
}


Company "1" - - "*" TestType: conducts >
Company "1" - - "*" ParameterCategory : adopts >


TestType "*" - - "1..*" ParameterCategory : can measure\nparameters under >


@enduml

PlantUML version 1.2020.20(Sat Nov 21 10:02:45 WET 2020)
(GPL source distribution)
Java Runtime: OpenJDK Runtime Environment
JVM: OpenJDK 64-Bit Server VM
Default Encoding: UTF-8
Language: en
Country: PT
--></g></svg>