<?xml version="1.0" encoding="UTF-8" standalone="no"?><svg xmlns="http://www.w3.org/2000/svg" xmlns:xlink="http://www.w3.org/1999/xlink" contentScriptType="application/ecmascript" contentStyleType="text/css" height="233px" preserveAspectRatio="none" style="width:1374px;height:233px;" version="1.1" viewBox="0 0 1374 233" width="1374px" zoomAndPan="magnify"><defs><filter height="300%" id="fyakcwwcsi108" width="300%" x="-1" y="-1"><feGaussianBlur result="blurOut" stdDeviation="2.0"/><feColorMatrix in="blurOut" result="blurOut2" type="matrix" values="0 0 0 0 0 0 0 0 0 0 0 0 0 0 0 0 0 0 .4 0"/><feOffset dx="4.0" dy="4.0" in="blurOut2" result="blurOut3"/><feBlend in="SourceGraphic" in2="blurOut3" mode="normal"/></filter></defs><g><!--MD5=[6017f56a87b244e108fd0d8749edd53c]
class CreateParameterCategoryUI--><rect codeLine="4" fill="#FEFECE" filter="url(#fyakcwwcsi108)" height="48" id="CreateParameterCategoryUI" style="stroke: #A80036; stroke-width: 1.5;" width="192" x="7" y="110"/><ellipse cx="22" cy="126" fill="#ADD1B2" rx="11" ry="11" style="stroke: #A80036; stroke-width: 1.0;"/><path d="M24.4731,132.1431 Q23.8921,132.4419 23.2529,132.5913 Q22.6138,132.7407 21.9082,132.7407 Q19.4014,132.7407 18.0815,131.0889 Q16.7617,129.437 16.7617,126.3159 Q16.7617,123.1865 18.0815,121.5347 Q19.4014,119.8828 21.9082,119.8828 Q22.6138,119.8828 23.2612,120.0322 Q23.9087,120.1816 24.4731,120.4805 L24.4731,123.2031 Q23.8423,122.6221 23.2488,122.3523 Q22.6553,122.0825 22.0244,122.0825 Q20.6797,122.0825 19.9949,123.1492 Q19.3101,124.2158 19.3101,126.3159 Q19.3101,128.4077 19.9949,129.4744 Q20.6797,130.541 22.0244,130.541 Q22.6553,130.541 23.2488,130.2712 Q23.8423,130.0015 24.4731,129.4204 Z " fill="#000000"/><text fill="#000000" font-family="sans-serif" font-size="12" lengthAdjust="spacingAndGlyphs" textLength="160" x="36" y="130.5352">CreateParameterCategoryUI</text><line style="stroke: #A80036; stroke-width: 1.5;" x1="8" x2="198" y1="142" y2="142"/><line style="stroke: #A80036; stroke-width: 1.5;" x1="8" x2="198" y1="150" y2="150"/><!--MD5=[43bb81d93caae6cc68206df5797cd1c4]
class CreateParameterCategoryController--><rect codeLine="8" fill="#FEFECE" filter="url(#fyakcwwcsi108)" height="73.9102" id="CreateParameterCategoryController" style="stroke: #A80036; stroke-width: 1.5;" width="237" x="260" y="97"/><ellipse cx="275" cy="113" fill="#ADD1B2" rx="11" ry="11" style="stroke: #A80036; stroke-width: 1.0;"/><path d="M277.4731,119.1431 Q276.8921,119.4419 276.2529,119.5913 Q275.6138,119.7407 274.9082,119.7407 Q272.4014,119.7407 271.0815,118.0889 Q269.7617,116.437 269.7617,113.3159 Q269.7617,110.1865 271.0815,108.5347 Q272.4014,106.8828 274.9082,106.8828 Q275.6138,106.8828 276.2612,107.0322 Q276.9087,107.1816 277.4731,107.4805 L277.4731,110.2031 Q276.8423,109.6221 276.2488,109.3523 Q275.6553,109.0825 275.0244,109.0825 Q273.6797,109.0825 272.9949,110.1492 Q272.3101,111.2158 272.3101,113.3159 Q272.3101,115.4077 272.9949,116.4744 Q273.6797,117.541 275.0244,117.541 Q275.6553,117.541 276.2488,117.2712 Q276.8423,117.0015 277.4731,116.4204 Z " fill="#000000"/><text fill="#000000" font-family="sans-serif" font-size="12" lengthAdjust="spacingAndGlyphs" textLength="205" x="289" y="117.5352">CreateParameterCategoryController</text><line style="stroke: #A80036; stroke-width: 1.5;" x1="261" x2="496" y1="129" y2="129"/><line style="stroke: #A80036; stroke-width: 1.5;" x1="261" x2="496" y1="137" y2="137"/><text fill="#000000" font-family="sans-serif" font-size="11" lengthAdjust="spacingAndGlyphs" textLength="214" x="266" y="151.6348">+createParameterCategory(code, name)</text><text fill="#000000" font-family="sans-serif" font-size="11" lengthAdjust="spacingAndGlyphs" textLength="144" x="266" y="164.5898">+saveParameterCategory()</text><!--MD5=[02e4b9b7573f1156f41e60aa5b4e25a4]
class Company--><rect codeLine="13" fill="#FEFECE" filter="url(#fyakcwwcsi108)" height="73.9102" id="Company" style="stroke: #A80036; stroke-width: 1.5;" width="177" x="558" y="7"/><ellipse cx="615.25" cy="23" fill="#ADD1B2" rx="11" ry="11" style="stroke: #A80036; stroke-width: 1.0;"/><path d="M617.7231,29.1431 Q617.1421,29.4419 616.5029,29.5913 Q615.8638,29.7407 615.1582,29.7407 Q612.6514,29.7407 611.3315,28.0889 Q610.0117,26.437 610.0117,23.3159 Q610.0117,20.1865 611.3315,18.5347 Q612.6514,16.8828 615.1582,16.8828 Q615.8638,16.8828 616.5112,17.0322 Q617.1587,17.1816 617.7231,17.4805 L617.7231,20.2031 Q617.0923,19.6221 616.4988,19.3523 Q615.9053,19.0825 615.2744,19.0825 Q613.9297,19.0825 613.2449,20.1492 Q612.5601,21.2158 612.5601,23.3159 Q612.5601,25.4077 613.2449,26.4744 Q613.9297,27.541 615.2744,27.541 Q615.9053,27.541 616.4988,27.2712 Q617.0923,27.0015 617.7231,26.4204 Z " fill="#000000"/><text fill="#000000" font-family="sans-serif" font-size="12" lengthAdjust="spacingAndGlyphs" textLength="54" x="635.75" y="27.5352">Company</text><line style="stroke: #A80036; stroke-width: 1.5;" x1="559" x2="734" y1="39" y2="39"/><text fill="#000000" font-family="sans-serif" font-size="11" lengthAdjust="spacingAndGlyphs" textLength="69" x="564" y="53.6348">-designation</text><line style="stroke: #A80036; stroke-width: 1.5;" x1="559" x2="734" y1="59.9551" y2="59.9551"/><text fill="#000000" font-family="sans-serif" font-size="11" lengthAdjust="spacingAndGlyphs" textLength="165" x="564" y="74.5898">+getParameterCategoryStore()</text><!--MD5=[d802db621b5b215a6f0466f93cefcb42]
class ParameterCategoryStore--><rect codeLine="18" fill="#FEFECE" filter="url(#fyakcwwcsi108)" height="99.8203" id="ParameterCategoryStore" style="stroke: #A80036; stroke-width: 1.5;" width="226" x="840" y="52"/><ellipse cx="879.3" cy="68" fill="#ADD1B2" rx="11" ry="11" style="stroke: #A80036; stroke-width: 1.0;"/><path d="M881.7731,74.1431 Q881.1921,74.4419 880.5529,74.5913 Q879.9138,74.7407 879.2082,74.7407 Q876.7014,74.7407 875.3815,73.0889 Q874.0617,71.437 874.0617,68.3159 Q874.0617,65.1865 875.3815,63.5347 Q876.7014,61.8828 879.2082,61.8828 Q879.9138,61.8828 880.5612,62.0322 Q881.2087,62.1816 881.7731,62.4805 L881.7731,65.2031 Q881.1423,64.6221 880.5488,64.3523 Q879.9553,64.0825 879.3244,64.0825 Q877.9797,64.0825 877.2949,65.1492 Q876.6101,66.2158 876.6101,68.3159 Q876.6101,70.4077 877.2949,71.4744 Q877.9797,72.541 879.3244,72.541 Q879.9553,72.541 880.5488,72.2712 Q881.1423,72.0015 881.7731,71.4204 Z " fill="#000000"/><text fill="#000000" font-family="sans-serif" font-size="12" lengthAdjust="spacingAndGlyphs" textLength="140" x="898.7" y="72.5352">ParameterCategoryStore</text><line style="stroke: #A80036; stroke-width: 1.5;" x1="841" x2="1065" y1="84" y2="84"/><line style="stroke: #A80036; stroke-width: 1.5;" x1="841" x2="1065" y1="92" y2="92"/><text fill="#000000" font-family="sans-serif" font-size="11" lengthAdjust="spacingAndGlyphs" textLength="214" x="846" y="106.6348">+createParameterCategory(code, name)</text><text fill="#000000" font-family="sans-serif" font-size="11" lengthAdjust="spacingAndGlyphs" textLength="174" x="846" y="119.5898">+validateParameterCategory(pc)</text><text fill="#000000" font-family="sans-serif" font-size="11" lengthAdjust="spacingAndGlyphs" textLength="157" x="846" y="132.5449">+saveParameterCategory(pc)</text><text fill="#000000" font-family="sans-serif" font-size="11" lengthAdjust="spacingAndGlyphs" textLength="150" x="846" y="145.5">-addParameterCategory(pc)</text><!--MD5=[36afb6bbd95a8ac778c4537c55a683d5]
class ParameterCategory--><rect codeLine="25" fill="#FEFECE" filter="url(#fyakcwwcsi108)" height="86.8652" id="ParameterCategory" style="stroke: #A80036; stroke-width: 1.5;" width="193" x="1167" y="132.5"/><ellipse cx="1204.5" cy="148.5" fill="#ADD1B2" rx="11" ry="11" style="stroke: #A80036; stroke-width: 1.0;"/><path d="M1206.9731,154.6431 Q1206.3921,154.9419 1205.7529,155.0913 Q1205.1138,155.2407 1204.4082,155.2407 Q1201.9014,155.2407 1200.5815,153.5889 Q1199.2617,151.937 1199.2617,148.8159 Q1199.2617,145.6865 1200.5815,144.0347 Q1201.9014,142.3828 1204.4082,142.3828 Q1205.1138,142.3828 1205.7612,142.5322 Q1206.4087,142.6816 1206.9731,142.9805 L1206.9731,145.7031 Q1206.3423,145.1221 1205.7488,144.8523 Q1205.1553,144.5825 1204.5244,144.5825 Q1203.1797,144.5825 1202.4949,145.6492 Q1201.8101,146.7158 1201.8101,148.8159 Q1201.8101,150.9077 1202.4949,151.9744 Q1203.1797,153.041 1204.5244,153.041 Q1205.1553,153.041 1205.7488,152.7712 Q1206.3423,152.5015 1206.9731,151.9204 Z " fill="#000000"/><text fill="#000000" font-family="sans-serif" font-size="12" lengthAdjust="spacingAndGlyphs" textLength="111" x="1223.5" y="153.0352">ParameterCategory</text><line style="stroke: #A80036; stroke-width: 1.5;" x1="1168" x2="1359" y1="164.5" y2="164.5"/><text fill="#000000" font-family="sans-serif" font-size="11" lengthAdjust="spacingAndGlyphs" textLength="32" x="1173" y="179.1348">-code</text><text fill="#000000" font-family="sans-serif" font-size="11" lengthAdjust="spacingAndGlyphs" textLength="35" x="1173" y="192.0898">-name</text><line style="stroke: #A80036; stroke-width: 1.5;" x1="1168" x2="1359" y1="198.4102" y2="198.4102"/><text fill="#000000" font-family="sans-serif" font-size="11" lengthAdjust="spacingAndGlyphs" textLength="181" x="1173" y="213.0449">+ParameterCategory(code, name)</text><!--MD5=[93b1b9218398b0464d36d46d0f539949]
link CreateParameterCategoryUI to CreateParameterCategoryController--><path codeLine="31" d="M199.27,134 C217.17,134 236.11,134 254.71,134 " fill="none" id="CreateParameterCategoryUI-to-CreateParameterCategoryController" style="stroke: #A80036; stroke-width: 1.0; stroke-dasharray: 7.0,7.0;"/><polygon fill="#A80036" points="259.94,134,250.94,130,254.94,134,250.94,138,259.94,134" style="stroke: #A80036; stroke-width: 1.0;"/><!--MD5=[a00c31f7a5d66db29f7adf0293377a3b]
link CreateParameterCategoryController to Company--><path codeLine="32" d="M489.23,96.87 C510.43,89.7 532.44,82.25 553.02,75.29 " fill="none" id="CreateParameterCategoryController-to-Company" style="stroke: #A80036; stroke-width: 1.0; stroke-dasharray: 7.0,7.0;"/><polygon fill="#A80036" points="557.94,73.63,548.1311,72.7432,553.2067,75.241,550.7088,80.3166,557.94,73.63" style="stroke: #A80036; stroke-width: 1.0;"/><!--MD5=[be6e87e2c6f1800ec3da53612c46e11a]
link CreateParameterCategoryController to ParameterCategoryStore--><path codeLine="33" d="M497.08,127.43 C595.78,121.91 736.05,114.07 834.67,108.56 " fill="none" id="CreateParameterCategoryController-to-ParameterCategoryStore" style="stroke: #A80036; stroke-width: 1.0; stroke-dasharray: 7.0,7.0;"/><polygon fill="#A80036" points="839.93,108.26,830.7259,104.7552,834.9374,108.5318,831.1608,112.7433,839.93,108.26" style="stroke: #A80036; stroke-width: 1.0;"/><!--MD5=[869a0022b647c5cba08cf9438b652be2]
link CreateParameterCategoryController to ParameterCategory--><path codeLine="34" d="M497.21,144.88 C590.18,153.01 723.26,163.6 840,169 C949.93,174.08 1076.1,175.61 1161.74,176.01 " fill="none" id="CreateParameterCategoryController-to-ParameterCategory" style="stroke: #A80036; stroke-width: 1.0; stroke-dasharray: 7.0,7.0;"/><polygon fill="#A80036" points="1166.8,176.03,1157.8115,172.0043,1161.8,176.0157,1157.7886,180.0043,1166.8,176.03" style="stroke: #A80036; stroke-width: 1.0;"/><!--MD5=[d53d7490e5836ca5709858d7326f212b]
link Company to ParameterCategoryStore--><path codeLine="35" d="M735.17,60.7 C766.19,66.61 801.6,73.35 834.68,79.65 " fill="none" id="Company-to-ParameterCategoryStore" style="stroke: #A80036; stroke-width: 1.0;"/><polygon fill="#A80036" points="839.97,80.66,831.8721,75.0542,835.0574,79.729,830.3826,82.9143,839.97,80.66" style="stroke: #A80036; stroke-width: 1.0;"/><text fill="#000000" font-family="sans-serif" font-size="13" lengthAdjust="spacingAndGlyphs" textLength="43" x="766" y="64.5684">adopts</text><text fill="#000000" font-family="sans-serif" font-size="13" lengthAdjust="spacingAndGlyphs" textLength="8" x="743.1338" y="75.3653">1</text><text fill="#000000" font-family="sans-serif" font-size="13" lengthAdjust="spacingAndGlyphs" textLength="8" x="824.107" y="92.315">1</text><!--MD5=[d6274e3b73b5bc8f467c6cfbf5bf003e]
link ParameterCategoryStore to ParameterCategory--><path codeLine="36" d="M1066.25,128.93 C1097.48,136.42 1131.2,144.51 1161.74,151.83 " fill="none" id="ParameterCategoryStore-to-ParameterCategory" style="stroke: #A80036; stroke-width: 1.0;"/><polygon fill="#A80036" points="1166.61,153,1158.782,147.0232,1161.7461,151.8413,1156.928,154.8054,1166.61,153" style="stroke: #A80036; stroke-width: 1.0;"/><text fill="#000000" font-family="sans-serif" font-size="13" lengthAdjust="spacingAndGlyphs" textLength="39" x="1097" y="133.5684">stores</text><text fill="#000000" font-family="sans-serif" font-size="13" lengthAdjust="spacingAndGlyphs" textLength="8" x="1074.1277" y="143.8281">1</text><text fill="#000000" font-family="sans-serif" font-size="13" lengthAdjust="spacingAndGlyphs" textLength="6" x="1152.9622" y="164.3987">*</text><!--MD5=[e3f1d42a0f7a0eaa9917a27e6902e0b7]
@startuml
skinparam classAttributeIconSize 0
left to right direction

class CreateParameterCategoryUI {

}

class CreateParameterCategoryController {
+createParameterCategory(code, name)
+saveParameterCategory()
}

class Company {
-designation
+getParameterCategoryStore()
}

class ParameterCategoryStore {
+createParameterCategory(code, name)
+validateParameterCategory(pc)
+saveParameterCategory(pc)
-addParameterCategory(pc)
}

class ParameterCategory {
-code
-name
+ParameterCategory(code, name)
}

CreateParameterCategoryUI ..> CreateParameterCategoryController
CreateParameterCategoryController ..> Company
CreateParameterCategoryController ..> ParameterCategoryStore
CreateParameterCategoryController ..> ParameterCategory
Company "1" - -> "1" ParameterCategoryStore : adopts
ParameterCategoryStore "1" - -> "*" ParameterCategory : stores

@enduml

PlantUML version 1.2020.20(Sat Nov 21 10:02:45 WET 2020)
(GPL source distribution)
Java Runtime: OpenJDK Runtime Environment
JVM: OpenJDK 64-Bit Server VM
Default Encoding: UTF-8
Language: en
Country: PT
--></g></svg>